<?xml version="1.0" encoding="utf-8"?>
<!-- Generator: Adobe Illustrator 21.1.0, SVG Export Plug-In . SVG Version: 6.00 Build 0)  -->
<svg version="1.1" id="Layer_1" xmlns="http://www.w3.org/2000/svg" xmlns:xlink="http://www.w3.org/1999/xlink" x="0px" y="0px"
	 viewBox="0 0 500 350" style="enable-background:new 0 0 500 350;" xml:space="preserve">
<style type="text/css">
	.st0{fill:#FFFFFF;}
</style>
<g>
	<g>
		<rect x="87" y="72" class="st0" width="10" height="6"/>
		<rect x="101" y="72" class="st0" width="35" height="6"/>
		<rect x="87" y="82" class="st0" width="49" height="6"/>
		<rect x="87" y="92" class="st0" width="10" height="6"/>
		<rect x="101" y="92" class="st0" width="10" height="6"/>
		<rect x="115" y="92" class="st0" width="21" height="6"/>
	</g>
	<polyline class="st0" points="149,36 149,31 141,39 149,47 149,31 	"/>
	<polyline class="st0" points="25,134 25,139 33,131 25,123 25,139 	"/>
	<g>
		<path class="st0" d="M30,128h-6c-3.3,0-6-2.7-6-6V48c0-3.3,2.7-6,6-6h115l-3-3l3-3H24c-6.6,0-12,5.4-12,12v74c0,6.6,5.4,12,12,12
			h6V128z"/>
		<path class="st0" d="M150,36h-4v6h4c3.3,0,6,2.7,6,6v74c0,3.3-2.7,6-6,6H35l3,3l-3,3h115c6.6,0,12-5.4,12-12V48
			C162,41.4,156.6,36,150,36z"/>
	</g>
	<g>
		<path class="st0" d="M66.1,79.6c0-3.4-2.8-6.2-6.2-6.2h-1.3c2.3-1.3,3.9-3.8,3.9-6.7c0-4.3-3.5-7.7-7.7-7.7S47,62.5,47,66.7
			c0,2.9,1.6,5.4,3.9,6.7h-1.3c-3.4,0-6.2,2.8-6.2,6.2v4.1h22.7V79.6z"/>
		<g>
			<g>
				<path class="st0" d="M66.5,95.1l-3.4-7.9c-0.3-0.7-1-1.1-1.7-1.1H46.9c-0.7,0-1.4,0.4-1.7,1.1l-3.4,7.9
					c-1.5,0.7-2.5,2.2-2.5,3.9v4.9c0,1,0.8,1.9,1.9,1.9h0.6v3.1c0,1,0.8,1.9,1.9,1.9h2.5c1,0,1.9-0.8,1.9-1.9v-3.1h12.4v3.1
					c0,1,0.8,1.9,1.9,1.9h2.5c1,0,1.9-0.8,1.9-1.9v-3.1h0.6c1,0,1.9-0.8,1.9-1.9v-4.9C69,97.3,68,95.8,66.5,95.1z M46.4,87.7
					c0.1-0.2,0.3-0.4,0.6-0.4h14.5c0.2,0,0.5,0.1,0.6,0.4l3,7.1c-0.1,0-0.2,0-0.3,0h-21c-0.1,0-0.2,0-0.3,0L46.4,87.7z M46.7,109
					c0,0.3-0.3,0.6-0.6,0.6h-2.5c-0.3,0-0.6-0.3-0.6-0.6v-3.1h3.7V109z M64.7,109.6h-2.5c-0.3,0-0.6-0.3-0.6-0.6v-3.1h3.7v3.1h0
					C65.3,109.3,65,109.6,64.7,109.6z M67.1,104.6h-1.2H61H47.3h-5h-1.2c-0.3,0-0.6-0.3-0.6-0.6v-4.9c0-1.7,1.4-3.1,3.1-3.1h21
					c1.7,0,3.1,1.4,3.1,3.1v4.9h0C67.8,104.3,67.5,104.6,67.1,104.6z"/>
			</g>
			<g>
				<path class="st0" d="M44.9,97.2c-1.7,0-3.1,1.4-3.1,3.1c0,1.7,1.4,3.1,3.1,3.1s3.1-1.4,3.1-3.1C48,98.6,46.6,97.2,44.9,97.2z
					 M44.9,102.2c-1,0-1.9-0.8-1.9-1.9c0-1,0.8-1.9,1.9-1.9s1.9,0.8,1.9,1.9C46.7,101.3,45.9,102.2,44.9,102.2z"/>
			</g>
			<g>
				<path class="st0" d="M63.4,97.2c-1.7,0-3.1,1.4-3.1,3.1c0,1.7,1.4,3.1,3.1,3.1c1.7,0,3.1-1.4,3.1-3.1
					C66.5,98.6,65.1,97.2,63.4,97.2z M63.4,102.2c-1,0-1.9-0.8-1.9-1.9c0-1,0.8-1.9,1.9-1.9c1,0,1.9,0.8,1.9,1.9
					C65.3,101.3,64.5,102.2,63.4,102.2z"/>
			</g>
			<g>
				<path class="st0" d="M58.5,100.9h-8.7c-0.3,0-0.6,0.3-0.6,0.6s0.3,0.6,0.6,0.6h8.7c0.3,0,0.6-0.3,0.6-0.6S58.8,100.9,58.5,100.9
					z"/>
			</g>
			<g>
				<path class="st0" d="M58.5,98.4h-8.7c-0.3,0-0.6,0.3-0.6,0.6c0,0.3,0.3,0.6,0.6,0.6h8.7c0.3,0,0.6-0.3,0.6-0.6
					C59.1,98.7,58.8,98.4,58.5,98.4z"/>
			</g>
		</g>
	</g>
</g>
<g>
	<path class="st0" d="M195.5,74.4c-2.5,2.6-5.5,3.8-8.9,3.8c-2.1,0-4.1-0.4-5.9-1.3c-1.8-0.8-3.5-2-4.8-3.5
		c-1.4-1.5-2.4-3.2-3.2-5.2c-0.8-2-1.2-4.1-1.2-6.5c0-2.2,0.4-4.3,1.2-6.2c0.8-1.9,1.9-3.6,3.3-5.1c1.4-1.5,3-2.6,4.9-3.5
		c1.9-0.9,3.9-1.3,6.2-1.3c3,0,5.6,0.6,7.7,1.9c2.1,1.3,3.8,3,4.8,5.1l-4.6,3.4c-0.8-1.6-1.9-2.8-3.4-3.6s-3-1.3-4.7-1.3
		c-1.4,0-2.6,0.3-3.7,0.9c-1.1,0.6-2.1,1.4-2.9,2.3c-0.8,1-1.4,2.1-1.8,3.4c-0.4,1.3-0.7,2.7-0.7,4.1c0,1.5,0.2,2.9,0.7,4.2
		c0.5,1.3,1.1,2.4,2,3.4c0.8,1,1.8,1.7,3,2.3c1.2,0.6,2.4,0.8,3.8,0.8c3.1,0,5.9-1.5,8.4-4.4v-2.3h-6.4v-4.5h11.6V78h-5.1V74.4z"/>
	<path class="st0" d="M228.1,72.6V78H206V46h21.8v5.4h-15.6v7.7h13.5v5h-13.5v8.3H228.1z"/>
	<path class="st0" d="M239.2,57.5V78H233V46h4.8l16.7,21V46.1h6.2V78h-5L239.2,57.5z"/>
	<path class="st0" d="M289.5,72.6V78h-22.2V46h21.8v5.4h-15.6v7.7H287v5h-13.5v8.3H289.5z"/>
	<path class="st0" d="M294.4,78V46h14.1c1.5,0,2.8,0.3,4.1,0.9c1.2,0.6,2.3,1.4,3.2,2.4c0.9,1,1.6,2.1,2.1,3.4
		c0.5,1.3,0.8,2.6,0.8,3.8c0,2.1-0.5,4-1.6,5.6c-1,1.7-2.4,2.9-4.2,3.7l7.3,12h-7l-6.5-10.7h-6.1V78H294.4z M300.6,61.8h7.8
		c0.6,0,1.1-0.1,1.6-0.4s0.9-0.6,1.3-1.1c0.4-0.5,0.6-1,0.9-1.6c0.2-0.6,0.3-1.3,0.3-2c0-0.7-0.1-1.4-0.4-2.1s-0.6-1.2-1-1.6
		c-0.4-0.5-0.9-0.8-1.4-1.1c-0.5-0.3-1.1-0.4-1.6-0.4h-7.5V61.8z"/>
	<path class="st0" d="M351.2,46v32H345V64.4h-14.5V78h-6.2V46h6.2V59H345V46H351.2z"/>
	<path class="st0" d="M361.1,46l8.6,24.2l8.5-24.2h6.5l-12.5,32h-5.2l-12.6-32H361.1z"/>
	<path class="st0" d="M410.4,72.6V78h-22.2V46H410v5.4h-15.6v7.7h13.5v5h-13.5v8.3H410.4z"/>
	<path class="st0" d="M415.3,78V46h14.1c1.5,0,2.8,0.3,4.1,0.9c1.2,0.6,2.3,1.4,3.2,2.4c0.9,1,1.6,2.1,2.1,3.4
		c0.5,1.3,0.8,2.6,0.8,3.8c0,2.1-0.5,4-1.6,5.6c-1,1.7-2.4,2.9-4.2,3.7l7.3,12h-7l-6.5-10.7h-6.1V78H415.3z M421.5,61.8h7.8
		c0.6,0,1.1-0.1,1.6-0.4s0.9-0.6,1.3-1.1c0.4-0.5,0.6-1,0.9-1.6c0.2-0.6,0.3-1.3,0.3-2c0-0.7-0.1-1.4-0.4-2.1s-0.6-1.2-1-1.6
		c-0.4-0.5-0.9-0.8-1.4-1.1c-0.5-0.3-1.1-0.4-1.6-0.4h-7.5V61.8z"/>
	<path class="st0" d="M447.7,46l8.6,24.2l8.5-24.2h6.5L459,78h-5.2l-12.6-32H447.7z"/>
</g>
<g>
	<path class="st0" d="M171.8,123.5v-32h11.1c2.5,0,4.8,0.4,6.7,1.3c1.9,0.8,3.5,2,4.8,3.4c1.3,1.4,2.3,3.1,2.9,5.1
		c0.6,1.9,1,4,1,6.2c0,2.4-0.4,4.6-1.1,6.6c-0.7,2-1.8,3.6-3.1,5s-3,2.5-4.9,3.2c-1.9,0.8-4,1.1-6.4,1.1H171.8z M194.2,107.5
		c0-1.8-0.2-3.5-0.7-5c-0.5-1.5-1.2-2.8-2.2-3.9c-1-1.1-2.2-1.9-3.6-2.5c-1.4-0.6-3-0.9-4.8-0.9h-7v24.8h7c1.8,0,3.5-0.3,4.9-0.9
		c1.4-0.6,2.6-1.5,3.6-2.6s1.7-2.4,2.2-3.9C194,110.9,194.2,109.3,194.2,107.5z"/>
	<path class="st0" d="M212.6,91.5h3.4l13,32h-4.3l-3.8-9.4h-13.4l-3.7,9.4h-4.3L212.6,91.5z M220.1,111l-5.8-14.8l-5.9,14.8H220.1z"
		/>
	<path class="st0" d="M237.4,99.1v24.4h-4v-32h3.1l19.8,24.9V91.6h4v31.9H257L237.4,99.1z"/>
	<path class="st0" d="M295.7,123.5V98.8L285,117.7h-2.3l-10.7-18.9v24.7h-4v-32h4.3l11.6,20.7l11.6-20.7h4.2v32H295.7z"/>
	<path class="st0" d="M317.1,91.5h3.4l13,32h-4.3l-3.8-9.4H312l-3.7,9.4H304L317.1,91.5z M324.6,111l-5.8-14.8l-5.9,14.8H324.6z"/>
	<path class="st0" d="M337.8,123.5v-32h13.7c1.4,0,2.7,0.3,3.9,0.9c1.2,0.6,2.2,1.4,3.1,2.3c0.9,1,1.5,2.1,2,3.3
		c0.5,1.2,0.7,2.5,0.7,3.7c0,1.1-0.2,2.2-0.5,3.2c-0.3,1-0.8,2-1.3,2.8c-0.6,0.8-1.3,1.6-2.1,2.2c-0.8,0.6-1.7,1-2.8,1.3l7.7,12.2
		h-4.6l-7.3-11.5h-8.5v11.5H337.8z M341.9,108.4h9.7c0.8,0,1.6-0.2,2.3-0.5c0.7-0.4,1.3-0.8,1.7-1.5c0.5-0.6,0.9-1.3,1.1-2.1
		c0.3-0.8,0.4-1.6,0.4-2.5c0-0.9-0.2-1.7-0.5-2.5c-0.3-0.8-0.7-1.5-1.3-2.1c-0.5-0.6-1.1-1.1-1.8-1.4c-0.7-0.3-1.4-0.5-2.2-0.5h-9.4
		V108.4z"/>
	<path class="st0" d="M367.4,123.5V91.6h4v17.6l16.5-17.7h4.4l-12.8,14.1l13.5,17.9h-4.4L377,108l-5.5,5.8v9.8H367.4z"/>
</g>
</svg>
